{"title":"Five element ninja 1982 DVDRip Xvid AC3-KiNGDOM(Kingdom Release)","uid":5827821,"size":1368400834,"categoryP":"video","categoryS":"movies","magnet":"?xt=urn:btih:811bf5364f13820cf58e56883103def4b65d74f9&amp;dn=Five+element+ninja+1982+DVDRip+Xvid+AC3-KiNGDOM%28Kingdom+Release%29&amp;tr=udp%3A%2F%2Ftracker.openbittorrent.com%3A80&amp;tr=udp%3A%2F%2Fopen.demonii.com%3A1337&amp;tr=udp%3A%2F%2Ftracker.coppersurfer.tk%3A6969&amp;tr=udp%3A%2F%2Fexodus.desync.com%3A6969","seeders":0,"leechers":0,"uploader":"Treezluv2draw","files":7,"time":1284394917,"description":"Five Element Ninjas is a tale of vengeance, betrayal, and ambition against the backdrop of ninja martial skills and arts. When his school is destroyed and his colleagues all slaughtered by supreme ninja Cheng Yun and his five element ninjas, Tsiau Chin Hau sets out to take his revenge. But stopping the elemental ninjas (gold, wood, water, fire, and earth) is an awesome task. So, Chin studies the secrets of the ninja under the guidance of teacher Yan Yong Fe. Thus armed, Chin and his newfound cohorts Li Yin Win, Chan Sin, and Wan Fong challenge the element ninjas in a climactic battle to the death.\n\nVideo\nID                               : 0\nFormat                           : MPEG-4 Visual\nFormat profile                   : Advanced Simple@L5\nFormat settings, BVOP            : Yes\nFormat settings, QPel            : No\nFormat settings, GMC             : No warppoints\nFormat settings, Matrix          : Default (H.263)\nMuxing mode                      : Packed bitstream\nCodec ID                         : XVID\nCodec ID/Hint                    : XviD\nDuration                         : 1h 48mn\nBit rate                         : 1 549 Kbps\nWidth                            : 720 pixels\nHeight                           : 320 pixels\nDisplay aspect ratio             : 2.25:1\nFrame rate                       : 23.976 fps\nColor space                      : YUV\nChroma subsampling               : 4:2:0\nBit depth                        : 8 bits\nScan type                        : Progressive\nBits/(Pixel*Frame)               : 0.280\nStream size                      : 1.17 GiB (92%)\nWriting library                  : XviD 1.2.1 (UTC 2008-12-04)\n\nAudio\nID                               : 1\nFormat                           : MPEG Audio\nFormat version                   : Version 1\nFormat profile                   : Layer 3\nCodec ID                         : 55\nCodec ID/Hint                    : MP3\nDuration                         : 1h 48mn\nBit rate mode                    : Constant\nBit rate                         : 128 Kbps\nChannel(s)                       : 2 channels\nSampling rate                    : 44.1 KHz\nStream size                      : 99.0 MiB (8%)\nAlignment                        : Split accross interleaves\nInterleave, duration             : 42 ms (1.00 video frame)\nInterleave, preload duration     : 500 ms","torrent":{"xt":"urn:btih:811bf5364f13820cf58e56883103def4b65d74f9","amp;dn":"Five+element+ninja+1982+DVDRip+Xvid+AC3-KiNGDOM%28Kingdom+Release%29","amp;tr":["udp%3A%2F%2Ftracker.openbittorrent.com%3A80","udp%3A%2F%2Fopen.demonii.com%3A1337","udp%3A%2F%2Ftracker.coppersurfer.tk%3A6969","udp%3A%2F%2Fexodus.desync.com%3A6969"],"infoHash":"811bf5364f13820cf58e56883103def4b65d74f9","infoHashBuffer":{"type":"Buffer","data":[129,27,245,54,79,19,130,12,245,142,86,136,49,3,222,244,182,93,116,249]},"announce":[],"urlList":[]}}